<svg id="svg" version="1.1" xmlns="http://www.w3.org/2000/svg" xmlns:xlink="http://www.w3.org/1999/xlink" width="400" height="400" viewBox="0, 0, 400,400"><g id="svgg"><path id="path0" d="M214.600 168.791 C 209.157 169.781,202.778 174.179,202.183 177.352 C 201.783 179.482,202.153 180.362,204.489 182.840 C 206.986 185.489,211.032 190.031,212.649 192.000 C 213.282 192.770,214.132 193.760,214.539 194.200 C 214.946 194.640,216.108 196.080,217.121 197.400 C 218.134 198.720,219.067 199.890,219.195 200.000 C 219.426 200.198,223.694 205.950,227.249 210.851 C 229.300 213.679,234.176 221.290,236.315 225.000 C 237.075 226.320,238.062 228.030,238.508 228.800 C 241.603 234.147,246.993 245.515,248.940 250.800 C 251.159 256.826,251.505 257.919,253.245 264.400 C 255.781 273.844,256.687 288.718,255.159 295.800 C 252.247 309.294,248.303 316.635,239.042 325.800 C 232.576 332.199,223.969 337.616,217.200 339.546 C 208.645 341.987,202.771 342.121,194.200 340.074 C 179.312 336.516,161.305 321.929,148.683 303.200 C 147.571 301.550,146.512 300.140,146.330 300.067 C 146.149 299.993,146.000 299.756,146.000 299.539 C 146.000 299.322,145.460 298.359,144.800 297.400 C 144.140 296.441,143.600 295.463,143.600 295.228 C 143.600 294.993,143.420 294.800,143.200 294.800 C 142.980 294.800,142.800 294.539,142.800 294.220 C 142.800 293.901,141.998 292.791,141.018 291.754 L 139.235 289.867 135.718 289.875 C 126.492 289.896,117.916 296.295,120.540 301.200 C 121.696 303.362,122.928 305.449,123.647 306.462 C 124.061 307.046,124.400 307.639,124.400 307.780 C 124.400 308.021,126.207 310.713,130.052 316.200 C 135.207 323.556,144.230 333.451,150.600 338.732 C 152.360 340.191,153.890 341.478,154.000 341.592 C 154.110 341.707,154.492 341.980,154.849 342.200 C 155.206 342.420,156.609 343.377,157.967 344.328 C 176.109 357.017,199.250 359.334,222.000 350.740 C 229.746 347.814,243.370 340.360,246.000 337.609 C 246.110 337.494,247.370 336.425,248.800 335.233 C 251.790 332.740,258.398 326.195,258.404 325.720 C 258.407 325.544,259.082 324.674,259.904 323.787 C 260.727 322.899,261.580 321.896,261.800 321.556 C 262.020 321.217,263.141 319.540,264.292 317.830 C 267.234 313.459,271.186 305.372,272.853 300.314 C 276.060 290.582,277.224 280.759,276.452 269.958 C 275.944 262.844,275.274 258.242,274.043 253.400 C 273.820 252.520,273.460 251.080,273.245 250.200 C 271.501 243.077,268.293 234.661,263.943 225.800 C 262.082 222.010,261.151 220.303,258.926 216.600 C 258.397 215.720,257.862 214.685,257.736 214.300 C 257.610 213.915,257.348 213.600,257.153 213.600 C 256.959 213.600,256.800 213.402,256.800 213.160 C 256.800 212.725,248.262 199.962,246.639 197.971 C 246.177 197.406,245.350 196.335,244.800 195.592 C 244.250 194.850,242.756 192.973,241.480 191.421 C 240.204 189.869,238.867 188.240,238.509 187.800 C 237.578 186.655,233.108 181.504,230.031 178.029 C 221.657 168.573,220.293 167.756,214.600 168.791 " stroke="none" fill="#0565b4" fill-rule="evenodd"></path><path id="path1" d="M182.784 0.137 C 182.665 0.262,180.820 0.395,178.684 0.431 C 176.548 0.467,174.800 0.655,174.800 0.848 C 174.800 1.042,173.540 1.200,172.000 1.200 C 170.400 1.200,169.200 1.371,169.200 1.600 C 169.200 1.822,168.133 2.000,166.800 2.000 C 165.467 2.000,164.400 2.178,164.400 2.400 C 164.400 2.620,163.410 2.800,162.200 2.800 C 160.990 2.800,160.000 2.980,160.000 3.200 C 160.000 3.420,159.280 3.600,158.400 3.600 C 157.520 3.600,156.800 3.780,156.800 4.000 C 156.800 4.220,155.900 4.400,154.800 4.400 C 153.700 4.400,152.800 4.580,152.800 4.800 C 152.800 5.020,152.080 5.200,151.200 5.200 C 150.320 5.200,149.600 5.380,149.600 5.600 C 149.600 5.820,148.981 6.000,148.224 6.000 C 147.467 6.000,146.736 6.180,146.600 6.400 C 146.464 6.620,145.823 6.800,145.176 6.800 C 144.529 6.800,144.000 6.980,144.000 7.200 C 144.000 7.420,143.370 7.600,142.600 7.600 C 141.830 7.600,141.200 7.780,141.200 8.000 C 141.200 8.220,140.660 8.400,140.000 8.400 C 139.340 8.400,138.800 8.580,138.800 8.800 C 138.800 9.020,138.260 9.200,137.600 9.200 C 136.940 9.200,136.400 9.380,136.400 9.600 C 136.400 9.820,135.871 10.000,135.224 10.000 C 134.577 10.000,133.928 10.192,133.783 10.427 C 133.638 10.662,133.304 10.772,133.042 10.671 C 132.780 10.571,131.866 10.828,131.011 11.244 C 130.156 11.660,129.174 12.006,128.829 12.013 C 128.483 12.020,127.868 12.277,127.461 12.585 C 127.055 12.893,126.470 13.048,126.161 12.930 C 125.853 12.811,125.600 12.914,125.600 13.157 C 125.600 13.401,125.240 13.600,124.800 13.600 C 124.360 13.600,124.000 13.780,124.000 14.000 C 124.000 14.220,123.460 14.400,122.800 14.400 C 122.140 14.400,121.600 14.546,121.600 14.725 C 121.600 14.904,120.970 15.298,120.200 15.600 C 119.430 15.902,118.800 16.296,118.800 16.475 C 118.800 16.654,118.451 16.800,118.024 16.800 C 117.597 16.800,117.136 16.980,117.000 17.200 C 116.864 17.420,116.420 17.600,116.014 17.600 C 115.216 17.600,111.885 19.209,111.667 19.700 C 111.593 19.865,111.188 20.000,110.767 20.000 C 110.345 20.000,110.000 20.180,110.000 20.400 C 110.000 20.620,109.640 20.800,109.200 20.800 C 108.760 20.800,108.400 20.980,108.400 21.200 C 108.400 21.420,108.040 21.600,107.600 21.600 C 107.160 21.600,106.800 21.780,106.800 22.000 C 106.800 22.220,106.480 22.400,106.088 22.400 C 105.697 22.400,105.117 22.760,104.800 23.200 C 104.483 23.640,103.903 24.000,103.512 24.000 C 103.120 24.000,102.799 24.135,102.797 24.300 C 102.794 24.621,100.888 25.600,100.267 25.600 C 100.062 25.600,99.603 25.936,99.247 26.346 C 98.891 26.757,98.037 27.216,97.350 27.367 C 96.663 27.518,95.692 28.077,95.192 28.608 C 94.692 29.140,94.130 29.480,93.942 29.364 C 93.754 29.248,93.600 29.343,93.600 29.576 C 93.600 29.809,93.240 30.000,92.800 30.000 C 92.342 30.000,92.000 30.267,92.000 30.624 C 92.000 30.967,91.820 31.136,91.600 31.000 C 91.380 30.864,91.200 30.943,91.200 31.176 C 91.200 31.409,90.922 31.600,90.582 31.600 C 90.242 31.600,89.510 32.053,88.956 32.608 C 88.402 33.162,87.813 33.531,87.647 33.429 C 87.481 33.327,87.093 33.593,86.785 34.021 C 86.476 34.450,85.982 34.800,85.686 34.800 C 85.390 34.800,84.694 35.340,84.139 36.000 C 83.583 36.660,82.825 37.200,82.453 37.200 C 82.081 37.200,81.517 37.560,81.200 38.000 C 80.883 38.440,80.427 38.800,80.187 38.800 C 79.946 38.800,79.232 39.340,78.600 40.000 C 77.968 40.660,77.319 41.200,77.160 41.200 C 77.000 41.200,76.242 41.785,75.477 42.500 C 74.711 43.215,73.354 44.236,72.461 44.769 C 71.568 45.301,70.930 45.886,71.042 46.069 C 71.155 46.251,71.039 46.400,70.784 46.400 C 70.529 46.400,69.817 46.940,69.200 47.600 C 68.583 48.260,67.890 48.800,67.659 48.800 C 67.429 48.800,67.056 49.115,66.832 49.500 C 66.608 49.885,66.419 50.052,66.412 49.871 C 66.393 49.346,65.200 50.691,65.200 51.238 C 65.200 51.510,65.092 51.626,64.961 51.494 C 64.652 51.185,62.059 53.704,62.280 54.100 C 62.372 54.265,62.206 54.400,61.912 54.400 C 61.617 54.400,61.112 54.787,60.788 55.261 C 60.028 56.374,56.374 60.028,55.261 60.788 C 54.787 61.112,54.400 61.617,54.400 61.912 C 54.400 62.206,54.265 62.370,54.100 62.276 C 53.705 62.051,51.981 63.848,52.293 64.159 C 52.425 64.292,52.223 64.400,51.843 64.400 C 51.463 64.400,51.264 64.580,51.400 64.800 C 51.536 65.020,51.444 65.200,51.195 65.200 C 50.676 65.200,49.373 66.394,49.871 66.412 C 50.052 66.419,49.885 66.608,49.500 66.832 C 49.115 67.056,48.800 67.429,48.800 67.659 C 48.800 67.890,48.241 68.601,47.558 69.240 C 46.874 69.878,46.449 70.400,46.612 70.400 C 46.775 70.400,46.434 70.773,45.854 71.229 C 45.274 71.685,44.800 72.233,44.800 72.446 C 44.800 72.659,44.616 73.051,44.392 73.317 C 42.628 75.407,42.001 76.241,42.000 76.501 C 42.000 76.667,41.280 77.453,40.400 78.248 C 39.520 79.043,38.800 79.902,38.800 80.158 C 38.800 80.414,38.440 80.883,38.000 81.200 C 37.560 81.517,37.200 82.097,37.200 82.488 C 37.200 82.880,37.059 83.200,36.886 83.200 C 36.714 83.200,36.251 83.745,35.857 84.411 C 35.464 85.077,34.750 86.030,34.271 86.529 C 33.792 87.028,33.344 87.687,33.275 87.993 C 33.206 88.299,32.801 88.852,32.375 89.222 C 31.949 89.591,31.600 90.188,31.600 90.547 C 31.600 90.906,31.420 91.200,31.200 91.200 C 30.980 91.200,30.800 91.436,30.800 91.725 C 30.800 92.013,30.440 92.636,30.000 93.108 C 29.560 93.580,29.200 94.126,29.200 94.321 C 29.200 94.516,28.844 94.999,28.408 95.393 C 27.972 95.787,27.502 96.715,27.363 97.455 C 27.225 98.195,26.951 98.800,26.755 98.800 C 26.560 98.800,26.400 99.070,26.400 99.400 C 26.400 99.730,26.220 100.000,26.000 100.000 C 25.780 100.000,25.600 100.360,25.600 100.800 C 25.600 101.240,25.420 101.600,25.200 101.600 C 24.980 101.600,24.800 101.870,24.800 102.200 C 24.800 102.530,24.620 102.800,24.400 102.800 C 24.180 102.800,24.000 103.160,24.000 103.600 C 24.000 104.040,23.820 104.400,23.600 104.400 C 23.380 104.400,23.200 104.694,23.200 105.053 C 23.200 105.412,22.812 106.042,22.339 106.453 C 21.865 106.864,21.601 107.200,21.752 107.200 C 22.005 107.200,20.318 110.493,19.599 111.400 C 19.425 111.620,19.056 112.565,18.778 113.500 C 18.500 114.435,18.122 115.200,17.937 115.200 C 17.752 115.200,17.600 115.434,17.600 115.720 C 17.600 116.456,16.659 118.393,16.300 118.397 C 16.135 118.399,16.000 118.760,16.000 119.200 C 16.000 119.640,15.820 120.000,15.600 120.000 C 15.380 120.000,15.200 120.540,15.200 121.200 C 15.200 121.860,15.020 122.400,14.800 122.400 C 14.580 122.400,14.400 122.760,14.400 123.200 C 14.400 123.640,14.220 124.000,14.000 124.000 C 13.780 124.000,13.600 124.360,13.600 124.800 C 13.600 125.240,13.401 125.600,13.157 125.600 C 12.914 125.600,12.811 125.853,12.930 126.161 C 13.048 126.470,12.893 127.055,12.585 127.461 C 12.277 127.868,12.020 128.481,12.013 128.825 C 12.006 129.169,11.650 130.174,11.223 131.059 C 10.795 131.944,10.322 133.598,10.171 134.734 C 10.020 135.870,9.740 136.800,9.548 136.800 C 9.357 136.800,9.200 137.239,9.200 137.776 C 9.200 138.313,9.020 138.864,8.800 139.000 C 8.580 139.136,8.400 139.867,8.400 140.624 C 8.400 141.381,8.220 142.000,8.000 142.000 C 7.780 142.000,7.600 142.450,7.600 143.000 C 7.600 143.550,7.420 144.000,7.200 144.000 C 6.980 144.000,6.800 144.709,6.800 145.576 C 6.800 146.443,6.620 147.264,6.400 147.400 C 6.180 147.536,6.000 148.087,6.000 148.624 C 6.000 149.161,5.820 149.600,5.600 149.600 C 5.380 149.600,5.200 150.320,5.200 151.200 C 5.200 152.080,5.020 152.800,4.800 152.800 C 4.580 152.800,4.400 153.700,4.400 154.800 C 4.400 155.900,4.220 156.800,4.000 156.800 C 3.780 156.800,3.600 157.610,3.600 158.600 C 3.600 159.590,3.454 160.400,3.275 160.400 C 3.096 160.400,2.906 161.255,2.853 162.300 C 2.800 163.345,2.587 164.260,2.379 164.333 C 2.170 164.407,2.000 165.532,2.000 166.833 C 2.000 168.144,1.822 169.200,1.600 169.200 C 1.371 169.200,1.200 170.400,1.200 172.000 C 1.200 173.540,1.042 174.800,0.848 174.800 C 0.017 174.800,-0.113 224.829,0.718 225.106 C 1.021 225.207,1.200 226.138,1.200 227.610 C 1.200 228.898,1.380 230.064,1.600 230.200 C 1.820 230.336,2.000 231.607,2.000 233.024 C 2.000 234.475,2.175 235.600,2.400 235.600 C 2.620 235.600,2.800 236.590,2.800 237.800 C 2.800 239.010,2.980 240.000,3.200 240.000 C 3.420 240.000,3.600 240.720,3.600 241.600 C 3.600 242.480,3.780 243.200,4.000 243.200 C 4.220 243.200,4.400 244.100,4.400 245.200 C 4.400 246.300,4.580 247.200,4.800 247.200 C 5.020 247.200,5.200 247.920,5.200 248.800 C 5.200 249.680,5.380 250.400,5.600 250.400 C 5.820 250.400,6.000 251.120,6.000 252.000 C 6.000 252.880,6.180 253.600,6.400 253.600 C 6.620 253.600,6.800 254.140,6.800 254.800 C 6.800 255.460,6.980 256.000,7.200 256.000 C 7.420 256.000,7.600 256.630,7.600 257.400 C 7.600 258.170,7.780 258.800,8.000 258.800 C 8.220 258.800,8.400 259.340,8.400 260.000 C 8.400 260.660,8.580 261.200,8.800 261.200 C 9.020 261.200,9.200 261.740,9.200 262.400 C 9.200 263.060,9.380 263.600,9.600 263.600 C 9.820 263.600,10.000 264.140,10.000 264.800 C 10.000 265.460,10.163 266.000,10.363 266.000 C 10.562 266.000,10.638 266.333,10.531 266.740 C 10.425 267.148,10.613 267.756,10.950 268.093 C 11.286 268.429,11.462 268.805,11.340 268.927 C 11.218 269.048,11.393 269.541,11.729 270.020 C 12.065 270.500,12.251 271.123,12.143 271.405 C 12.034 271.688,12.138 272.038,12.373 272.183 C 12.608 272.328,12.800 272.887,12.800 273.424 C 12.800 273.961,12.951 274.400,13.136 274.400 C 13.618 274.400,14.400 276.267,14.400 277.419 C 14.400 277.958,14.580 278.400,14.800 278.400 C 15.020 278.400,15.200 278.760,15.200 279.200 C 15.200 279.640,15.380 280.000,15.600 280.000 C 15.820 280.000,16.000 280.360,16.000 280.800 C 16.000 281.240,16.146 281.600,16.325 281.600 C 16.748 281.600,17.835 284.382,17.682 285.071 C 17.618 285.362,17.708 285.601,17.882 285.601 C 18.057 285.602,18.650 286.592,19.200 287.800 C 19.750 289.008,20.335 289.998,20.500 289.999 C 20.665 289.999,20.800 290.360,20.800 290.800 C 20.800 291.240,20.980 291.600,21.200 291.600 C 21.420 291.600,21.600 291.960,21.600 292.400 C 21.600 292.840,21.780 293.200,22.000 293.200 C 22.220 293.200,22.400 293.520,22.400 293.912 C 22.400 294.303,22.760 294.883,23.200 295.200 C 23.640 295.517,24.000 296.097,24.000 296.488 C 24.000 296.880,24.135 297.201,24.300 297.203 C 24.621 297.206,25.600 299.112,25.600 299.733 C 25.600 299.938,25.936 300.397,26.346 300.753 C 26.757 301.109,27.221 301.987,27.379 302.704 C 27.536 303.420,28.010 304.191,28.433 304.417 C 28.855 304.643,29.200 305.079,29.200 305.386 C 29.200 305.692,29.491 306.234,29.848 306.590 C 30.204 306.947,30.407 307.326,30.300 307.433 C 30.193 307.540,30.609 308.167,31.224 308.826 C 31.840 309.485,32.580 310.559,32.870 311.212 C 33.159 311.865,33.531 312.400,33.698 312.400 C 33.864 312.400,34.000 312.670,34.000 313.000 C 34.000 313.330,34.180 313.600,34.400 313.600 C 34.620 313.600,34.800 313.888,34.800 314.240 C 34.800 314.591,35.340 315.383,36.000 316.000 C 36.660 316.617,37.200 317.419,37.200 317.784 C 37.200 318.149,37.380 318.336,37.600 318.200 C 37.820 318.064,38.000 318.233,38.000 318.576 C 38.000 318.919,38.180 319.200,38.400 319.200 C 38.620 319.200,38.802 319.515,38.804 319.900 C 38.806 320.285,39.346 321.025,40.004 321.545 C 40.662 322.065,41.200 322.671,41.200 322.892 C 41.200 323.112,41.892 323.947,42.737 324.747 C 43.582 325.546,44.209 326.388,44.130 326.619 C 44.052 326.849,45.025 328.109,46.294 329.419 C 47.562 330.728,48.855 332.295,49.167 332.899 C 49.479 333.504,49.826 333.907,49.938 333.796 C 50.186 333.548,52.000 335.205,52.000 335.679 C 52.000 335.865,53.280 337.229,54.844 338.709 C 57.854 341.558,58.833 342.545,61.959 345.879 C 63.031 347.023,64.019 347.848,64.154 347.713 C 64.289 347.577,64.400 347.777,64.400 348.157 C 64.400 348.537,64.580 348.736,64.800 348.600 C 65.020 348.464,65.200 348.552,65.200 348.795 C 65.200 349.434,67.063 351.200,67.737 351.200 C 68.052 351.200,68.735 351.738,69.255 352.396 C 69.775 353.054,70.455 353.594,70.767 353.596 C 71.078 353.598,71.222 353.711,71.086 353.848 C 70.768 354.165,71.792 355.200,72.425 355.200 C 72.689 355.200,73.197 355.522,73.553 355.915 C 73.909 356.308,75.049 357.184,76.087 357.861 C 77.125 358.538,77.860 359.206,77.721 359.346 C 77.581 359.486,77.760 359.600,78.119 359.600 C 78.478 359.600,78.965 359.960,79.200 360.400 C 79.435 360.840,79.882 361.200,80.191 361.200 C 80.501 361.200,80.990 361.515,81.277 361.900 C 81.565 362.285,82.062 362.657,82.383 362.728 C 82.704 362.798,83.471 363.383,84.087 364.028 C 84.703 364.672,85.475 365.200,85.803 365.200 C 86.132 365.200,86.400 365.380,86.400 365.600 C 86.400 365.820,86.681 366.000,87.024 366.000 C 87.367 366.000,87.536 366.180,87.400 366.400 C 87.264 366.620,87.522 366.800,87.973 366.800 C 88.424 366.800,89.018 367.160,89.293 367.600 C 89.568 368.040,90.109 368.400,90.496 368.400 C 90.883 368.400,91.203 368.535,91.206 368.700 C 91.210 368.865,92.127 369.449,93.244 369.998 C 94.362 370.547,95.448 371.317,95.658 371.709 C 95.868 372.101,96.191 372.329,96.375 372.216 C 96.559 372.102,96.932 372.277,97.204 372.604 C 97.476 372.932,97.854 373.200,98.044 373.200 C 98.235 373.200,98.756 373.513,99.203 373.896 C 99.650 374.278,100.237 374.612,100.508 374.638 C 101.504 374.733,102.800 375.303,102.800 375.647 C 102.800 375.841,103.160 376.000,103.600 376.000 C 104.040 376.000,104.400 376.180,104.400 376.400 C 104.400 376.620,104.760 376.800,105.200 376.800 C 105.640 376.800,106.000 376.950,106.000 377.133 C 106.000 377.417,108.485 378.859,111.897 380.554 C 112.390 380.799,112.795 381.135,112.797 381.300 C 112.799 381.465,113.340 381.600,114.000 381.600 C 114.660 381.600,115.200 381.780,115.200 382.000 C 115.200 382.220,115.560 382.400,116.000 382.400 C 116.440 382.400,116.800 382.580,116.800 382.800 C 116.800 383.020,117.250 383.200,117.800 383.200 C 118.350 383.200,118.800 383.380,118.800 383.600 C 118.800 383.820,119.070 384.000,119.400 384.000 C 119.730 384.000,120.000 384.180,120.000 384.400 C 120.000 384.620,120.414 384.800,120.920 384.800 C 121.974 384.800,123.992 385.653,123.997 386.100 C 123.999 386.265,124.360 386.400,124.800 386.400 C 125.240 386.400,125.600 386.580,125.600 386.800 C 125.600 387.020,126.020 387.200,126.533 387.200 C 127.047 387.200,127.591 387.325,127.744 387.477 C 127.896 387.629,128.413 387.814,128.893 387.887 C 129.373 387.960,129.888 388.219,130.038 388.461 C 130.188 388.704,130.490 388.791,130.710 388.656 C 130.930 388.520,131.332 388.677,131.604 389.004 C 131.876 389.332,132.515 389.600,133.025 389.600 C 133.535 389.600,134.066 389.783,134.204 390.007 C 134.342 390.230,134.631 390.305,134.845 390.172 C 135.060 390.039,135.696 390.233,136.258 390.601 C 136.821 390.970,137.623 391.183,138.041 391.073 C 138.458 390.964,138.800 391.038,138.800 391.237 C 138.800 391.437,139.520 391.600,140.400 391.600 C 141.280 391.600,142.000 391.780,142.000 392.000 C 142.000 392.220,142.551 392.400,143.224 392.400 C 143.937 392.400,144.344 392.567,144.200 392.800 C 144.049 393.045,144.670 393.200,145.800 393.200 C 146.930 393.200,147.551 393.355,147.400 393.600 C 147.256 393.833,147.663 394.000,148.376 394.000 C 149.049 394.000,149.600 394.180,149.600 394.400 C 149.600 394.620,150.320 394.800,151.200 394.800 C 152.080 394.800,152.800 394.980,152.800 395.200 C 152.800 395.420,153.700 395.600,154.800 395.600 C 155.900 395.600,156.800 395.780,156.800 396.000 C 156.800 396.220,157.610 396.400,158.600 396.400 C 159.590 396.400,160.400 396.580,160.400 396.800 C 160.400 397.020,161.300 397.200,162.400 397.200 C 163.500 397.200,164.400 397.380,164.400 397.600 C 164.400 397.822,165.467 398.000,166.800 398.000 C 168.133 398.000,169.200 398.178,169.200 398.400 C 169.200 398.628,170.389 398.800,171.967 398.800 C 173.824 398.800,174.788 398.964,174.900 399.300 C 175.031 399.693,180.409 399.800,200.000 399.800 C 219.591 399.800,224.969 399.693,225.100 399.300 C 225.212 398.964,226.176 398.800,228.033 398.800 C 229.611 398.800,230.800 398.628,230.800 398.400 C 230.800 398.180,231.689 398.000,232.776 398.000 C 233.863 398.000,234.864 397.820,235.000 397.600 C 235.136 397.380,236.317 397.200,237.624 397.200 C 238.941 397.200,240.000 397.022,240.000 396.800 C 240.000 396.580,240.619 396.400,241.376 396.400 C 242.133 396.400,242.864 396.220,243.000 396.000 C 243.136 395.780,244.137 395.600,245.224 395.600 C 246.311 395.600,247.200 395.420,247.200 395.200 C 247.200 394.980,247.920 394.800,248.800 394.800 C 249.680 394.800,250.400 394.620,250.400 394.400 C 250.400 394.180,251.120 394.000,252.000 394.000 C 252.880 394.000,253.600 393.820,253.600 393.600 C 253.600 393.380,254.050 393.200,254.600 393.200 C 255.150 393.200,255.600 393.020,255.600 392.800 C 255.600 392.580,256.320 392.400,257.200 392.400 C 258.080 392.400,258.800 392.220,258.800 392.000 C 258.800 391.780,259.329 391.600,259.976 391.600 C 260.623 391.600,261.266 391.417,261.404 391.193 C 261.542 390.970,261.796 390.874,261.969 390.981 C 262.141 391.087,263.253 390.802,264.441 390.347 C 265.628 389.892,266.911 389.481,267.292 389.435 C 267.672 389.388,268.107 389.226,268.259 389.075 C 268.410 388.924,268.848 388.800,269.233 388.800 C 269.618 388.800,269.996 388.612,270.073 388.382 C 270.149 388.152,270.614 387.934,271.106 387.897 C 271.598 387.860,272.000 387.688,272.000 387.515 C 272.000 387.342,272.540 387.200,273.200 387.200 C 273.860 387.200,274.401 387.065,274.403 386.900 C 274.408 386.453,276.426 385.600,277.480 385.600 C 277.986 385.600,278.400 385.420,278.400 385.200 C 278.400 384.980,278.760 384.800,279.200 384.800 C 279.640 384.800,280.001 384.665,280.003 384.500 C 280.007 384.141,281.944 383.200,282.680 383.200 C 282.966 383.200,283.200 383.020,283.200 382.800 C 283.200 382.580,283.725 382.400,284.367 382.400 C 285.008 382.400,285.593 382.265,285.667 382.100 C 285.740 381.935,286.700 381.351,287.800 380.802 C 288.900 380.254,290.040 379.577,290.332 379.299 C 290.625 379.020,291.030 378.895,291.232 379.020 C 291.435 379.145,291.600 379.057,291.600 378.824 C 291.600 378.591,291.960 378.400,292.400 378.400 C 292.840 378.400,293.200 378.220,293.200 378.000 C 293.200 377.780,293.520 377.600,293.912 377.600 C 294.303 377.600,294.883 377.240,295.200 376.800 C 295.517 376.360,296.097 376.000,296.488 376.000 C 296.880 376.000,297.200 375.848,297.200 375.663 C 297.200 375.478,297.920 375.111,298.800 374.847 C 299.680 374.584,300.400 374.222,300.400 374.044 C 300.400 373.866,301.227 373.379,302.238 372.962 C 303.249 372.546,304.246 371.888,304.452 371.502 C 304.659 371.116,305.094 370.800,305.420 370.800 C 306.180 370.800,307.512 370.033,308.665 368.931 C 309.165 368.453,309.940 367.946,310.387 367.804 C 310.834 367.662,311.200 367.378,311.200 367.173 C 311.200 366.968,311.520 366.800,311.912 366.800 C 312.303 366.800,312.883 366.440,313.200 366.000 C 313.517 365.560,314.025 365.200,314.328 365.200 C 314.631 365.200,315.359 364.705,315.946 364.100 C 317.377 362.625,319.436 361.200,320.137 361.200 C 320.450 361.200,320.793 360.872,320.898 360.470 C 321.002 360.069,321.910 359.355,322.913 358.883 C 323.917 358.411,324.855 357.657,324.998 357.207 C 325.141 356.757,325.406 356.480,325.587 356.592 C 325.768 356.704,326.024 356.515,326.155 356.172 C 326.287 355.830,326.567 355.656,326.778 355.787 C 326.989 355.917,328.206 354.939,329.481 353.614 C 330.756 352.288,332.115 351.203,332.500 351.202 C 332.885 351.201,333.200 350.942,333.200 350.627 C 333.200 350.312,333.560 349.940,334.000 349.800 C 334.440 349.660,334.800 349.278,334.800 348.949 C 334.800 348.621,334.935 348.428,335.100 348.520 C 335.265 348.612,336.498 347.542,337.839 346.143 C 339.181 344.745,340.211 343.600,340.130 343.600 C 340.048 343.600,340.751 342.817,341.691 341.860 C 342.631 340.903,343.446 340.155,343.503 340.196 C 343.745 340.376,348.671 335.372,348.520 335.100 C 348.428 334.935,348.621 334.800,348.949 334.800 C 349.278 334.800,349.660 334.440,349.800 334.000 C 349.940 333.560,350.312 333.200,350.627 333.200 C 350.942 333.200,351.200 332.869,351.200 332.464 C 351.200 332.060,352.100 330.912,353.200 329.914 C 354.300 328.917,355.200 327.851,355.200 327.546 C 355.200 326.924,357.042 324.800,357.581 324.800 C 357.772 324.800,358.332 323.966,358.826 322.946 C 359.319 321.927,360.055 321.006,360.462 320.900 C 360.868 320.794,361.200 320.450,361.200 320.137 C 361.200 319.503,362.621 317.352,363.700 316.354 C 364.085 315.998,364.400 315.492,364.400 315.229 C 364.400 314.967,364.608 314.881,364.862 315.038 C 365.147 315.214,365.215 315.148,365.040 314.865 C 364.884 314.612,365.214 313.950,365.778 313.385 C 366.340 312.823,366.800 312.102,366.800 311.782 C 366.800 311.462,366.958 311.200,367.151 311.200 C 367.345 311.200,367.729 310.653,368.006 309.985 C 368.283 309.316,368.845 308.590,369.255 308.371 C 369.665 308.151,370.000 307.618,370.000 307.186 C 370.000 306.754,370.180 306.400,370.400 306.400 C 370.620 306.400,370.800 306.046,370.800 305.614 C 370.800 305.182,371.160 304.635,371.600 304.400 C 372.040 304.165,372.400 303.702,372.400 303.372 C 372.400 302.675,373.567 300.736,374.245 300.306 C 374.500 300.144,374.828 299.379,374.973 298.606 C 375.118 297.833,375.408 297.200,375.618 297.200 C 375.828 297.200,376.000 296.840,376.000 296.400 C 376.000 295.960,376.180 295.600,376.400 295.600 C 376.620 295.600,376.800 295.322,376.800 294.983 C 376.800 294.644,377.160 293.980,377.600 293.508 C 378.040 293.036,378.400 292.413,378.400 292.125 C 378.400 291.836,378.546 291.600,378.725 291.600 C 378.904 291.600,379.298 290.970,379.600 290.200 C 379.902 289.430,380.296 288.800,380.475 288.800 C 380.654 288.800,380.800 288.440,380.800 288.000 C 380.800 287.560,380.980 287.200,381.200 287.200 C 381.420 287.200,381.600 286.660,381.600 286.000 C 381.600 285.340,381.780 284.800,382.000 284.800 C 382.220 284.800,382.400 284.440,382.400 284.000 C 382.400 283.560,382.580 283.200,382.800 283.200 C 383.020 283.200,383.200 282.739,383.200 282.176 C 383.200 281.596,383.373 281.260,383.600 281.400 C 383.826 281.540,384.000 281.212,384.000 280.647 C 384.000 280.097,384.180 279.536,384.400 279.400 C 384.620 279.264,384.800 278.803,384.800 278.376 C 384.800 277.949,384.980 277.600,385.200 277.600 C 385.420 277.600,385.600 277.184,385.600 276.675 C 385.600 276.167,385.960 275.364,386.400 274.892 C 386.840 274.420,387.200 273.677,387.200 273.240 C 387.200 272.804,387.380 272.336,387.600 272.200 C 387.820 272.064,388.000 271.513,388.000 270.976 C 388.000 270.439,388.180 270.000,388.400 270.000 C 388.620 270.000,388.800 269.651,388.800 269.224 C 388.800 268.797,388.980 268.336,389.200 268.200 C 389.420 268.064,389.600 267.549,389.600 267.056 C 389.600 266.563,389.797 265.963,390.038 265.722 C 390.278 265.482,390.407 264.951,390.323 264.542 C 390.239 264.134,390.402 263.620,390.684 263.400 C 390.966 263.180,391.314 261.875,391.456 260.500 C 391.598 259.125,391.868 258.000,392.057 258.000 C 392.246 258.000,392.400 257.460,392.400 256.800 C 392.400 256.140,392.580 255.600,392.800 255.600 C 393.020 255.600,393.200 254.970,393.200 254.200 C 393.200 253.430,393.380 252.800,393.600 252.800 C 393.820 252.800,394.000 252.260,394.000 251.600 C 394.000 250.940,394.180 250.400,394.400 250.400 C 394.620 250.400,394.800 249.680,394.800 248.800 C 394.800 247.920,394.980 247.200,395.200 247.200 C 395.420 247.200,395.600 246.311,395.600 245.224 C 395.600 244.137,395.780 243.136,396.000 243.000 C 396.220 242.864,396.400 241.953,396.400 240.976 C 396.400 239.999,396.580 239.200,396.800 239.200 C 397.020 239.200,397.200 238.390,397.200 237.400 C 397.200 236.410,397.380 235.600,397.600 235.600 C 397.822 235.600,398.000 234.533,398.000 233.200 C 398.000 231.867,398.178 230.800,398.400 230.800 C 398.628 230.800,398.800 229.611,398.800 228.033 C 398.800 226.211,398.967 225.211,399.288 225.104 C 400.125 224.825,399.988 174.800,399.150 174.800 C 398.958 174.800,398.800 173.540,398.800 172.000 C 398.800 170.400,398.629 169.200,398.400 169.200 C 398.178 169.200,398.000 168.133,398.000 166.800 C 398.000 165.467,397.822 164.400,397.600 164.400 C 397.380 164.400,397.200 163.410,397.200 162.200 C 397.200 160.990,397.020 160.000,396.800 160.000 C 396.580 160.000,396.400 159.280,396.400 158.400 C 396.400 157.520,396.220 156.800,396.000 156.800 C 395.780 156.800,395.600 155.900,395.600 154.800 C 395.600 153.700,395.420 152.800,395.200 152.800 C 394.980 152.800,394.800 152.080,394.800 151.200 C 394.800 150.320,394.620 149.600,394.400 149.600 C 394.180 149.600,394.000 148.981,394.000 148.224 C 394.000 147.467,393.820 146.736,393.600 146.600 C 393.380 146.464,393.200 145.813,393.200 145.153 C 393.200 144.455,393.033 144.056,392.800 144.200 C 392.558 144.349,392.400 143.804,392.400 142.824 C 392.400 141.931,392.243 141.200,392.052 141.200 C 391.860 141.200,391.585 140.308,391.440 139.217 C 391.295 138.126,390.943 137.000,390.656 136.713 C 390.370 136.427,390.206 135.982,390.292 135.724 C 390.378 135.465,390.175 134.725,389.840 134.078 C 389.506 133.431,389.334 132.799,389.460 132.674 C 389.585 132.549,389.308 131.913,388.844 131.261 C 388.380 130.610,388.000 129.609,388.000 129.038 C 388.000 128.467,387.820 128.000,387.600 128.000 C 387.380 128.000,387.200 127.537,387.200 126.971 C 387.200 126.406,386.928 125.671,386.596 125.339 C 386.264 125.007,386.095 124.570,386.220 124.368 C 386.345 124.165,386.257 124.000,386.024 124.000 C 385.791 124.000,385.600 123.460,385.600 122.800 C 385.600 122.140,385.420 121.600,385.200 121.600 C 384.980 121.600,384.800 121.255,384.800 120.833 C 384.800 120.412,384.665 120.007,384.500 119.933 C 384.081 119.747,382.400 116.438,382.400 115.800 C 382.400 115.162,380.719 111.853,380.300 111.667 C 380.135 111.593,380.000 111.188,380.000 110.767 C 380.000 110.345,379.820 110.000,379.600 110.000 C 379.380 110.000,379.200 109.640,379.200 109.200 C 379.200 108.760,379.020 108.400,378.800 108.400 C 378.580 108.400,378.400 108.040,378.400 107.600 C 378.400 107.160,378.220 106.800,378.000 106.800 C 377.780 106.800,377.600 106.506,377.600 106.147 C 377.600 105.788,377.276 105.203,376.880 104.847 C 376.192 104.229,375.526 102.949,374.411 100.100 C 374.132 99.385,373.745 98.800,373.551 98.800 C 373.358 98.800,373.200 98.530,373.200 98.200 C 373.200 97.870,373.020 97.600,372.800 97.600 C 372.580 97.600,372.400 97.246,372.400 96.814 C 372.400 96.382,372.040 95.835,371.600 95.600 C 371.160 95.365,370.800 94.818,370.800 94.386 C 370.800 93.954,370.620 93.600,370.400 93.600 C 370.180 93.600,370.000 93.280,370.000 92.888 C 370.000 92.497,369.640 91.917,369.200 91.600 C 368.760 91.283,368.400 90.743,368.400 90.400 C 368.400 90.057,368.040 89.517,367.600 89.200 C 367.160 88.883,366.800 88.293,366.800 87.888 C 366.800 87.484,366.620 87.264,366.400 87.400 C 366.180 87.536,366.000 87.367,366.000 87.024 C 366.000 86.681,365.820 86.400,365.600 86.400 C 365.380 86.400,365.200 86.132,365.200 85.803 C 365.200 85.475,364.672 84.703,364.028 84.087 C 363.383 83.471,362.798 82.704,362.728 82.383 C 362.657 82.062,362.285 81.565,361.900 81.277 C 361.515 80.990,361.200 80.501,361.200 80.191 C 361.200 79.882,360.840 79.435,360.400 79.200 C 359.960 78.965,359.600 78.498,359.600 78.162 C 359.600 77.827,359.420 77.664,359.200 77.800 C 358.980 77.936,358.800 77.789,358.800 77.474 C 358.800 77.159,358.170 76.213,357.400 75.372 C 356.630 74.531,356.000 73.625,356.000 73.357 C 356.000 73.089,354.920 71.773,353.600 70.432 C 352.280 69.092,351.200 67.808,351.200 67.579 C 351.200 67.026,349.354 65.200,348.795 65.200 C 348.552 65.200,348.456 65.033,348.582 64.829 C 348.708 64.625,348.449 64.343,348.006 64.202 C 347.563 64.061,347.192 63.733,347.182 63.473 C 347.171 63.213,346.443 62.370,345.564 61.600 C 343.805 60.061,342.945 59.206,338.799 54.880 C 337.259 53.275,336.000 52.093,336.000 52.255 C 336.000 52.417,335.466 52.038,334.814 51.414 C 334.162 50.789,333.706 50.152,333.801 49.999 C 333.895 49.846,333.491 49.468,332.902 49.160 C 332.313 48.852,330.930 47.745,329.828 46.700 C 328.726 45.655,327.672 44.800,327.484 44.800 C 327.296 44.800,326.906 44.575,326.616 44.300 C 326.326 44.025,325.579 43.440,324.956 43.000 C 324.332 42.560,323.048 41.435,322.101 40.500 C 321.154 39.565,320.114 38.800,319.789 38.800 C 319.465 38.800,319.200 38.620,319.200 38.400 C 319.200 38.180,318.919 38.000,318.576 38.000 C 318.233 38.000,318.064 37.820,318.200 37.600 C 318.336 37.380,318.149 37.200,317.784 37.200 C 317.419 37.200,316.617 36.660,316.000 36.000 C 315.383 35.340,314.625 34.800,314.315 34.800 C 314.005 34.800,313.364 34.440,312.892 34.000 C 312.420 33.560,311.846 33.200,311.617 33.200 C 311.388 33.200,311.200 33.020,311.200 32.800 C 311.200 32.580,310.944 32.400,310.631 32.400 C 310.318 32.400,309.553 31.898,308.931 31.284 C 308.309 30.670,307.150 29.864,306.355 29.491 C 305.560 29.119,304.699 28.560,304.441 28.249 C 304.183 27.938,303.348 27.567,302.586 27.424 C 301.824 27.281,301.200 26.992,301.200 26.782 C 301.200 26.572,300.930 26.400,300.600 26.400 C 300.270 26.400,300.000 26.220,300.000 26.000 C 300.000 25.780,299.640 25.600,299.200 25.600 C 298.760 25.600,298.400 25.420,298.400 25.200 C 298.400 24.980,298.130 24.800,297.800 24.800 C 297.470 24.800,297.200 24.620,297.200 24.400 C 297.200 24.180,296.840 24.000,296.400 24.000 C 295.960 24.000,295.600 23.820,295.600 23.600 C 295.600 23.380,295.322 23.200,294.983 23.200 C 294.644 23.200,293.980 22.840,293.508 22.400 C 293.036 21.960,292.413 21.600,292.125 21.600 C 291.836 21.600,291.600 21.454,291.600 21.275 C 291.600 21.096,290.970 20.702,290.200 20.400 C 289.430 20.098,288.800 19.704,288.800 19.525 C 288.800 19.346,288.440 19.200,288.000 19.200 C 287.560 19.200,287.200 19.012,287.200 18.782 C 287.200 18.553,286.962 18.418,286.671 18.482 C 285.982 18.635,283.200 17.548,283.200 17.125 C 283.200 16.946,282.739 16.800,282.176 16.800 C 281.596 16.800,281.260 16.627,281.400 16.400 C 281.541 16.172,281.196 16.000,280.600 16.000 C 280.004 16.000,279.659 15.828,279.800 15.600 C 279.944 15.367,279.537 15.200,278.824 15.200 C 278.151 15.200,277.600 15.020,277.600 14.800 C 277.600 14.580,277.184 14.400,276.675 14.400 C 276.167 14.400,275.364 14.040,274.892 13.600 C 274.420 13.160,273.677 12.800,273.240 12.800 C 272.804 12.800,272.336 12.620,272.200 12.400 C 272.064 12.180,271.637 12.000,271.252 12.000 C 270.866 12.000,269.841 11.658,268.975 11.239 C 268.109 10.821,266.543 10.350,265.495 10.193 C 264.447 10.036,263.492 9.748,263.371 9.554 C 263.251 9.359,262.724 9.200,262.200 9.200 C 261.676 9.200,261.136 9.020,261.000 8.800 C 260.864 8.580,260.223 8.400,259.576 8.400 C 258.929 8.400,258.400 8.220,258.400 8.000 C 258.400 7.780,257.860 7.600,257.200 7.600 C 256.540 7.600,256.000 7.420,256.000 7.200 C 256.000 6.980,255.179 6.800,254.176 6.800 C 253.063 6.800,252.449 6.644,252.600 6.400 C 252.744 6.167,252.337 6.000,251.624 6.000 C 250.951 6.000,250.400 5.820,250.400 5.600 C 250.400 5.380,249.680 5.200,248.800 5.200 C 247.920 5.200,247.200 5.020,247.200 4.800 C 247.200 4.580,246.300 4.400,245.200 4.400 C 244.100 4.400,243.200 4.220,243.200 4.000 C 243.200 3.780,242.390 3.600,241.400 3.600 C 240.410 3.600,239.600 3.420,239.600 3.200 C 239.600 2.980,238.700 2.800,237.600 2.800 C 236.500 2.800,235.600 2.651,235.600 2.468 C 235.600 2.286,234.565 2.096,233.300 2.046 C 232.035 1.996,230.940 1.785,230.867 1.578 C 230.793 1.370,229.503 1.200,228.000 1.200 C 226.252 1.200,225.210 1.030,225.109 0.727 C 224.945 0.234,183.242 -0.347,182.784 0.137 M277.781 44.166 C 282.498 46.137,279.095 55.388,272.400 58.794 C 269.073 60.487,267.097 60.864,260.600 61.042 C 254.421 61.211,245.976 62.035,242.622 62.796 C 241.730 62.998,239.740 63.451,238.200 63.801 C 232.698 65.054,225.303 67.405,220.600 69.396 C 179.918 86.619,163.305 113.339,169.242 152.000 C 170.046 157.238,171.412 162.646,173.485 168.800 C 180.743 190.346,195.643 213.832,216.572 236.717 C 228.136 249.362,227.601 248.711,227.591 250.103 C 227.552 255.953,217.171 263.503,210.439 262.578 C 207.889 262.228,196.298 250.372,187.983 239.610 C 187.222 238.625,186.348 237.550,186.040 237.221 C 185.732 236.892,184.011 234.637,182.216 232.211 C 179.143 228.057,178.159 226.684,174.750 221.800 C 173.203 219.584,168.574 212.240,167.249 209.900 C 166.782 209.075,166.006 207.725,165.524 206.900 C 144.886 171.550,141.392 134.941,156.059 107.717 C 168.373 84.861,192.278 65.192,221.192 54.125 C 222.627 53.576,224.160 52.971,224.600 52.780 C 225.689 52.308,231.474 50.391,233.200 49.929 C 233.970 49.723,235.140 49.400,235.800 49.211 C 238.940 48.312,244.861 46.866,247.200 46.427 C 248.630 46.159,250.610 45.782,251.600 45.591 C 260.279 43.908,275.218 43.095,277.781 44.166 M220.851 168.167 C 222.761 168.970,229.684 176.232,239.758 188.000 C 240.229 188.550,241.053 189.630,241.588 190.400 C 242.124 191.170,242.849 192.070,243.200 192.400 C 243.551 192.730,244.273 193.630,244.806 194.400 C 245.338 195.170,245.960 195.996,246.187 196.237 C 248.097 198.256,256.400 210.417,256.400 211.196 C 256.400 211.418,256.547 211.600,256.726 211.600 C 256.905 211.600,257.414 212.275,257.856 213.100 C 259.039 215.305,259.774 216.574,260.001 216.800 C 260.111 216.910,260.471 217.540,260.800 218.200 C 261.129 218.860,261.499 219.490,261.623 219.600 C 263.421 221.207,271.130 239.651,273.242 247.400 C 273.482 248.280,273.840 249.313,274.039 249.695 C 274.238 250.077,274.400 250.921,274.400 251.571 C 274.400 252.221,274.580 252.864,274.800 253.000 C 275.020 253.136,275.200 253.921,275.200 254.744 C 275.200 255.567,275.363 256.411,275.563 256.620 C 275.763 256.829,276.027 257.900,276.151 259.000 C 276.275 260.100,276.588 262.530,276.847 264.400 C 277.435 268.638,277.442 282.845,276.859 286.600 C 276.620 288.140,276.310 290.210,276.171 291.200 C 276.032 292.190,275.756 293.171,275.559 293.380 C 275.362 293.589,275.200 294.343,275.200 295.056 C 275.200 295.769,275.020 296.464,274.800 296.600 C 274.580 296.736,274.400 297.341,274.400 297.944 C 274.400 298.547,274.251 299.211,274.070 299.420 C 273.888 299.629,273.494 300.610,273.194 301.600 C 271.574 306.955,264.512 320.314,262.411 322.000 C 262.274 322.110,261.721 322.830,261.183 323.600 C 258.474 327.478,252.649 333.208,245.946 338.589 C 244.368 339.855,239.198 343.200,238.818 343.200 C 238.588 343.200,238.400 343.359,238.400 343.553 C 238.400 343.748,238.085 344.010,237.700 344.136 C 237.315 344.262,236.100 344.913,235.000 345.582 C 230.450 348.352,220.474 352.491,215.113 353.832 C 206.692 355.939,205.591 356.078,195.800 356.279 C 189.623 356.406,185.877 356.314,184.400 356.001 C 177.297 354.496,175.119 353.893,171.092 352.319 C 169.382 351.650,166.862 350.490,165.492 349.741 C 164.121 348.992,162.685 348.273,162.300 348.143 C 161.915 348.013,161.600 347.748,161.600 347.553 C 161.600 347.359,161.407 347.200,161.172 347.200 C 160.665 347.200,157.059 344.791,156.867 344.323 C 156.793 344.145,156.523 343.997,156.267 343.993 C 155.243 343.977,146.897 336.801,142.000 331.725 C 136.996 326.539,135.167 324.400,131.535 319.494 C 130.032 317.462,128.443 315.350,128.006 314.800 C 127.569 314.250,127.208 313.575,127.205 313.300 C 127.202 313.025,127.050 312.800,126.868 312.800 C 126.685 312.800,126.280 312.305,125.968 311.700 C 125.655 311.095,125.085 310.251,124.700 309.825 C 124.315 309.398,124.000 308.813,124.000 308.525 C 124.000 308.236,123.841 308.000,123.647 308.000 C 123.452 308.000,123.193 307.685,123.071 307.300 C 122.775 306.364,121.476 304.234,121.100 304.067 C 120.935 303.993,120.796 303.723,120.791 303.467 C 120.786 303.210,120.430 302.550,120.000 302.000 C 117.649 298.994,120.558 294.038,126.200 291.437 C 127.520 290.828,128.913 290.166,129.295 289.965 C 129.677 289.764,130.431 289.600,130.971 289.600 C 131.511 289.600,132.064 289.420,132.200 289.200 C 132.505 288.706,137.752 288.668,138.705 289.153 C 139.087 289.348,139.875 289.727,140.456 289.997 C 141.037 290.267,141.757 290.963,142.056 291.544 C 142.355 292.125,142.915 292.949,143.300 293.375 C 143.685 293.802,144.000 294.301,144.000 294.485 C 144.000 294.902,151.596 306.252,152.752 307.561 C 153.218 308.090,153.602 308.630,153.603 308.761 C 153.605 308.893,154.192 309.630,154.907 310.400 C 155.622 311.170,157.016 312.781,158.004 313.980 C 161.421 318.128,171.765 327.869,174.349 329.373 C 174.702 329.578,175.173 329.904,175.395 330.097 C 175.787 330.437,176.346 330.789,180.602 333.381 C 183.731 335.286,189.589 338.000,190.572 338.000 C 190.891 338.000,191.264 338.180,191.400 338.400 C 191.536 338.620,192.166 338.800,192.800 338.800 C 193.434 338.800,194.064 338.980,194.200 339.200 C 194.336 339.420,195.121 339.600,195.944 339.600 C 196.767 339.600,197.628 339.788,197.859 340.019 C 198.320 340.480,210.925 340.336,213.000 339.846 C 215.249 339.314,217.398 338.709,218.300 338.354 C 218.795 338.159,219.605 337.845,220.100 337.657 C 223.693 336.286,231.420 331.744,233.437 329.817 C 233.677 329.588,234.473 328.950,235.206 328.400 C 240.527 324.407,247.138 315.852,250.197 309.000 C 250.786 307.680,251.433 306.287,251.634 305.905 C 251.835 305.523,252.000 304.936,252.000 304.600 C 252.000 304.264,252.162 303.677,252.361 303.295 C 252.560 302.913,252.912 301.880,253.144 301.000 C 256.216 289.360,255.786 276.736,251.823 262.200 C 250.744 258.243,247.912 250.044,246.557 246.953 C 244.002 241.128,240.400 233.552,240.018 233.200 C 239.898 233.090,239.381 232.190,238.868 231.200 C 237.264 228.101,236.209 226.208,235.971 226.000 C 235.845 225.890,235.624 225.530,235.480 225.200 C 235.336 224.870,234.403 223.340,233.406 221.800 C 232.410 220.260,231.471 218.736,231.321 218.414 C 230.808 217.312,227.862 213.000,227.531 212.867 C 227.349 212.793,227.200 212.512,227.200 212.242 C 227.200 211.972,226.880 211.402,226.489 210.975 C 226.098 210.549,225.342 209.570,224.808 208.800 C 224.275 208.030,223.731 207.310,223.600 207.200 C 223.469 207.090,222.923 206.370,222.386 205.600 C 221.850 204.830,221.197 203.930,220.935 203.600 C 220.672 203.270,219.512 201.740,218.356 200.200 C 217.200 198.660,216.152 197.310,216.027 197.200 C 215.902 197.090,215.145 196.190,214.345 195.200 C 213.544 194.210,212.497 192.950,212.018 192.400 C 211.539 191.850,210.214 190.329,209.073 189.020 C 207.933 187.710,206.460 186.088,205.800 185.415 C 200.015 179.514,199.740 177.133,204.350 172.878 C 205.919 171.430,211.776 168.404,213.029 168.394 C 213.453 168.391,214.070 168.213,214.400 168.000 C 215.300 167.418,219.317 167.522,220.851 168.167 " stroke="none" fill="#fbfbfb" fill-rule="evenodd"></path><path id="path2" d="M264.000 44.037 C 259.533 44.423,254.134 45.099,251.600 45.591 C 250.610 45.782,248.630 46.159,247.200 46.427 C 244.861 46.866,238.940 48.312,235.800 49.211 C 235.140 49.400,233.970 49.723,233.200 49.929 C 231.474 50.391,225.689 52.308,224.600 52.780 C 224.160 52.971,222.627 53.576,221.192 54.125 C 192.278 65.192,168.373 84.861,156.059 107.717 C 141.392 134.941,144.886 171.550,165.524 206.900 C 166.006 207.725,166.782 209.075,167.249 209.900 C 168.574 212.240,173.203 219.584,174.750 221.800 C 178.159 226.684,179.143 228.057,182.216 232.211 C 184.011 234.637,185.732 236.892,186.040 237.221 C 186.348 237.550,187.222 238.625,187.983 239.610 C 196.298 250.372,207.889 262.228,210.439 262.578 C 217.171 263.503,227.552 255.953,227.591 250.103 C 227.601 248.711,228.136 249.362,216.572 236.717 C 201.788 220.551,189.421 203.205,181.129 187.000 C 175.338 175.683,170.849 162.465,169.242 152.000 C 167.548 140.973,167.553 134.366,169.260 124.000 C 173.085 100.784,190.691 82.058,220.600 69.396 C 225.303 67.405,232.698 65.054,238.200 63.801 C 239.740 63.451,241.730 62.998,242.622 62.796 C 245.976 62.035,254.421 61.211,260.600 61.042 C 272.365 60.719,279.079 56.406,279.879 48.657 C 280.386 43.747,277.402 42.879,264.000 44.037 M333.600 50.125 C 333.600 50.194,334.185 50.779,334.900 51.425 L 336.200 52.600 335.025 51.300 C 333.930 50.088,333.600 49.816,333.600 50.125 M215.891 167.889 C 216.601 167.977,217.861 167.979,218.691 167.892 C 219.521 167.805,218.940 167.733,217.400 167.731 C 215.860 167.729,215.181 167.800,215.891 167.889 M224.400 171.325 C 224.400 171.394,224.985 171.979,225.700 172.625 L 227.000 173.800 225.825 172.500 C 224.730 171.288,224.400 171.016,224.400 171.325 M230.400 177.455 C 230.400 177.668,231.075 178.463,231.900 179.222 L 233.400 180.600 232.000 179.004 C 231.230 178.127,230.555 177.332,230.500 177.238 C 230.445 177.144,230.400 177.241,230.400 177.455 M234.400 182.200 C 235.146 182.970,235.847 183.600,235.957 183.600 C 236.067 183.600,235.546 182.970,234.800 182.200 C 234.054 181.430,233.353 180.800,233.243 180.800 C 233.133 180.800,233.654 181.430,234.400 182.200 M236.000 184.125 C 236.000 184.194,236.585 184.779,237.300 185.425 L 238.600 186.600 237.425 185.300 C 236.330 184.088,236.000 183.816,236.000 184.125 M210.834 191.047 C 211.365 191.733,211.880 192.223,211.979 192.135 C 212.077 192.047,211.643 191.486,211.013 190.888 L 209.869 189.800 210.834 191.047 M220.037 202.400 C 221.196 204.196,221.200 204.201,221.198 203.767 C 221.197 203.565,220.732 202.860,220.165 202.200 L 219.134 201.000 220.037 202.400 M222.496 205.795 C 222.993 206.562,223.544 207.192,223.720 207.195 C 223.897 207.198,223.560 206.570,222.973 205.800 C 221.600 204.000,221.332 203.997,222.496 205.795 M233.149 221.400 C 233.365 221.840,233.834 222.560,234.193 223.000 L 234.844 223.800 234.451 223.000 C 234.235 222.560,233.766 221.840,233.407 221.400 L 232.756 220.600 233.149 221.400 M267.228 231.400 C 267.228 231.620,267.486 232.250,267.800 232.800 C 268.114 233.350,268.372 233.620,268.372 233.400 C 268.372 233.180,268.114 232.550,267.800 232.000 C 267.486 231.450,267.228 231.180,267.228 231.400 M275.228 256.676 C 275.318 257.715,275.944 258.596,275.972 257.724 C 275.987 257.242,275.820 256.736,275.600 256.600 C 275.380 256.464,275.213 256.498,275.228 256.676 M277.098 269.200 C 277.213 270.630,277.374 271.875,277.454 271.967 C 277.749 272.304,277.533 268.174,277.215 267.400 C 277.022 266.930,276.974 267.673,277.098 269.200 M254.428 275.433 C 254.444 276.075,254.616 276.960,254.810 277.400 C 255.047 277.934,255.086 277.602,254.927 276.400 C 254.646 274.280,254.388 273.780,254.428 275.433 M277.267 281.000 C 277.224 281.880,277.089 283.050,276.967 283.600 C 276.777 284.457,276.809 284.499,277.194 283.897 C 277.441 283.510,277.576 282.340,277.494 281.297 C 277.348 279.453,277.342 279.445,277.267 281.000 M132.262 289.100 C 132.160 289.265,133.572 289.400,135.400 289.400 C 137.228 289.400,138.640 289.265,138.538 289.100 C 138.436 288.935,137.024 288.800,135.400 288.800 C 133.776 288.800,132.364 288.935,132.262 289.100 M139.635 289.700 C 139.728 289.755,140.426 290.340,141.187 291.000 C 141.947 291.660,142.306 291.840,141.985 291.400 C 141.263 290.413,140.320 289.630,139.833 289.613 C 139.632 289.606,139.543 289.645,139.635 289.700 M254.600 293.200 C 254.446 294.110,254.404 294.938,254.507 295.040 C 254.610 295.143,254.813 294.477,254.960 293.560 C 255.107 292.643,255.148 291.815,255.053 291.720 C 254.958 291.624,254.754 292.290,254.600 293.200 M121.178 295.100 L 119.800 296.600 121.300 295.222 C 122.696 293.938,122.984 293.600,122.678 293.600 C 122.612 293.600,121.937 294.275,121.178 295.100 M156.470 312.778 C 156.981 313.426,157.549 313.966,157.730 313.978 C 157.912 313.990,157.642 313.470,157.130 312.822 C 156.619 312.174,156.051 311.634,155.870 311.622 C 155.688 311.610,155.958 312.130,156.470 312.778 M248.253 312.900 L 247.533 314.200 248.358 313.200 C 249.089 312.313,249.414 311.600,249.086 311.600 C 249.024 311.600,248.649 312.185,248.253 312.900 M267.453 313.700 L 266.733 315.000 267.558 314.000 C 268.289 313.113,268.614 312.400,268.286 312.400 C 268.224 312.400,267.849 312.985,267.453 313.700 M245.200 317.600 C 244.730 318.260,244.436 318.800,244.546 318.800 C 244.656 318.800,245.130 318.260,245.600 317.600 C 246.070 316.940,246.364 316.400,246.254 316.400 C 246.144 316.400,245.670 316.940,245.200 317.600 M162.400 318.925 C 162.400 318.994,162.985 319.579,163.700 320.225 L 165.000 321.400 163.825 320.100 C 162.730 318.888,162.400 318.616,162.400 318.925 M166.600 323.200 C 167.459 324.080,168.252 324.800,168.362 324.800 C 168.472 324.800,167.859 324.080,167.000 323.200 C 166.141 322.320,165.348 321.600,165.238 321.600 C 165.128 321.600,165.741 322.320,166.600 323.200 M134.834 323.847 C 135.365 324.533,135.880 325.023,135.979 324.935 C 136.077 324.847,135.643 324.286,135.013 323.688 L 133.869 322.600 134.834 323.847 M140.600 330.400 C 142.128 331.940,143.459 333.200,143.558 333.200 C 143.899 333.200,138.598 327.696,138.211 327.648 C 137.997 327.622,139.072 328.860,140.600 330.400 M254.425 330.969 L 253.050 332.600 254.605 331.113 C 255.460 330.296,256.079 329.562,255.980 329.483 C 255.881 329.403,255.181 330.072,254.425 330.969 M177.362 331.800 C 178.172 332.350,178.953 332.800,179.095 332.800 C 179.238 332.800,178.745 332.350,178.000 331.800 C 177.255 331.250,176.474 330.800,176.266 330.800 C 176.059 330.800,176.551 331.250,177.362 331.800 M180.200 333.407 C 180.640 333.766,181.360 334.235,181.800 334.451 L 182.600 334.844 181.800 334.193 C 181.360 333.834,180.640 333.365,180.200 333.149 L 179.400 332.756 180.200 333.407 M250.378 334.700 L 249.000 336.200 250.500 334.822 C 251.896 333.538,252.184 333.200,251.878 333.200 C 251.812 333.200,251.137 333.875,250.378 334.700 M146.200 336.000 C 147.059 336.880,147.852 337.600,147.962 337.600 C 148.072 337.600,147.459 336.880,146.600 336.000 C 145.741 335.120,144.948 334.400,144.838 334.400 C 144.728 334.400,145.341 335.120,146.200 336.000 M148.400 337.725 C 148.400 337.794,148.985 338.379,149.700 339.025 L 151.000 340.200 149.825 338.900 C 148.730 337.688,148.400 337.416,148.400 337.725 M196.600 340.000 C 197.701 340.473,198.092 340.473,197.800 340.000 C 197.664 339.780,197.158 339.613,196.676 339.628 C 195.831 339.655,195.829 339.669,196.600 340.000 M202.915 340.696 C 204.188 340.776,206.168 340.775,207.315 340.694 C 208.462 340.614,207.420 340.549,205.000 340.550 C 202.580 340.551,201.642 340.616,202.915 340.696 M163.600 348.764 C 164.150 349.214,164.780 349.583,165.000 349.585 C 165.428 349.588,164.705 349.034,163.400 348.360 C 162.869 348.085,162.936 348.221,163.600 348.764 M208.200 355.200 C 207.696 355.417,207.622 355.544,208.000 355.544 C 208.330 355.544,208.960 355.389,209.400 355.200 C 209.904 354.983,209.978 354.856,209.600 354.856 C 209.270 354.856,208.640 355.011,208.200 355.200 M184.600 356.000 C 185.040 356.189,185.760 356.338,186.200 356.332 C 186.843 356.323,186.804 356.257,186.000 356.000 C 184.632 355.562,183.581 355.562,184.600 356.000 M203.200 356.000 C 202.408 356.254,202.367 356.320,203.000 356.320 C 203.440 356.320,204.250 356.176,204.800 356.000 C 205.592 355.746,205.633 355.680,205.000 355.680 C 204.560 355.680,203.750 355.824,203.200 356.000 " stroke="none" fill="#d3d4d4" fill-rule="evenodd"></path><path id="path3" d="M213.800 168.400 C 213.296 168.617,213.222 168.744,213.600 168.744 C 213.930 168.744,214.560 168.589,215.000 168.400 C 215.504 168.183,215.578 168.056,215.200 168.056 C 214.870 168.056,214.240 168.211,213.800 168.400 M206.200 171.835 L 205.000 172.866 206.400 171.963 C 208.196 170.804,208.201 170.800,207.767 170.802 C 207.565 170.803,206.860 171.268,206.200 171.835 M227.583 174.900 C 229.241 176.666,229.600 176.984,229.600 176.683 C 229.600 176.619,228.745 175.764,227.700 174.783 L 225.800 173.000 227.583 174.900 M231.600 179.400 C 232.346 180.170,233.047 180.800,233.157 180.800 C 233.267 180.800,232.746 180.170,232.000 179.400 C 231.254 178.630,230.553 178.000,230.443 178.000 C 230.333 178.000,230.854 178.630,231.600 179.400 M205.800 185.200 C 206.883 186.300,207.860 187.200,207.970 187.200 C 208.080 187.200,207.283 186.300,206.200 185.200 C 205.117 184.100,204.140 183.200,204.030 183.200 C 203.920 183.200,204.717 184.100,205.800 185.200 M247.375 198.532 C 247.991 199.339,248.576 200.000,248.675 200.000 C 248.953 200.000,247.221 197.660,246.709 197.344 C 246.459 197.189,246.759 197.724,247.375 198.532 M236.360 226.200 C 237.034 227.505,237.588 228.228,237.585 227.800 C 237.583 227.580,237.214 226.950,236.764 226.400 C 236.221 225.736,236.085 225.669,236.360 226.200 M274.468 253.600 C 274.488 254.639,275.118 256.346,275.132 255.400 C 275.138 254.960,274.989 254.240,274.800 253.800 C 274.589 253.310,274.461 253.232,274.468 253.600 M276.282 263.400 C 276.409 264.500,276.577 265.475,276.656 265.567 C 276.955 265.914,276.728 262.964,276.397 262.200 C 276.174 261.685,276.133 262.113,276.282 263.400 M254.493 273.200 C 254.493 273.970,254.575 274.285,254.676 273.900 C 254.776 273.515,254.776 272.885,254.676 272.500 C 254.575 272.115,254.493 272.430,254.493 273.200 M277.346 275.800 C 277.347 278.000,277.414 278.849,277.495 277.687 C 277.576 276.524,277.576 274.724,277.493 273.687 C 277.411 272.649,277.345 273.600,277.346 275.800 M255.366 284.800 C 255.366 288.870,255.425 290.535,255.498 288.500 C 255.571 286.465,255.571 283.135,255.498 281.100 C 255.425 279.065,255.366 280.730,255.366 284.800 M276.493 286.800 C 276.493 287.570,276.575 287.885,276.676 287.500 C 276.776 287.115,276.776 286.485,276.676 286.100 C 276.575 285.715,276.493 286.030,276.493 286.800 M124.000 292.836 C 123.336 293.379,123.269 293.515,123.800 293.240 C 125.105 292.566,125.828 292.012,125.400 292.015 C 125.180 292.017,124.550 292.386,124.000 292.836 M145.149 297.400 C 145.365 297.840,145.834 298.560,146.193 299.000 L 146.844 299.800 146.451 299.000 C 146.235 298.560,145.766 297.840,145.407 297.400 L 144.756 296.600 145.149 297.400 M149.200 303.600 C 149.670 304.260,150.144 304.800,150.254 304.800 C 150.364 304.800,150.070 304.260,149.600 303.600 C 149.130 302.940,148.656 302.400,148.546 302.400 C 148.436 302.400,148.730 302.940,149.200 303.600 M152.391 307.988 C 152.857 308.641,153.442 309.302,153.691 309.456 C 153.941 309.611,153.641 309.076,153.025 308.268 C 151.688 306.515,151.184 306.292,152.391 307.988 M247.753 314.100 C 246.376 316.436,246.286 316.635,246.987 315.800 C 247.800 314.832,248.500 313.600,248.238 313.600 C 248.133 313.600,247.915 313.825,247.753 314.100 M158.400 315.040 C 158.400 315.245,160.605 317.570,163.300 320.206 L 168.200 325.000 163.400 320.013 C 160.760 317.271,158.555 314.946,158.500 314.847 C 158.445 314.748,158.400 314.834,158.400 315.040 M265.753 316.100 C 264.376 318.436,264.286 318.635,264.987 317.800 C 265.800 316.832,266.500 315.600,266.238 315.600 C 266.133 315.600,265.915 315.825,265.753 316.100 M263.200 320.000 C 262.730 320.660,262.436 321.200,262.546 321.200 C 262.656 321.200,263.130 320.660,263.600 320.000 C 264.070 319.340,264.364 318.800,264.254 318.800 C 264.144 318.800,263.670 319.340,263.200 320.000 M239.391 324.900 L 236.200 328.200 239.500 325.009 C 242.565 322.046,242.982 321.600,242.691 321.600 C 242.630 321.600,241.145 323.085,239.391 324.900 M140.000 329.400 C 140.746 330.170,141.447 330.800,141.557 330.800 C 141.667 330.800,141.146 330.170,140.400 329.400 C 139.654 328.630,138.953 328.000,138.843 328.000 C 138.733 328.000,139.254 328.630,140.000 329.400 M253.978 331.100 L 252.600 332.600 254.100 331.222 C 255.496 329.938,255.784 329.600,255.478 329.600 C 255.412 329.600,254.737 330.275,253.978 331.100 M146.600 336.000 C 147.459 336.880,148.252 337.600,148.362 337.600 C 148.472 337.600,147.859 336.880,147.000 336.000 C 146.141 335.120,145.348 334.400,145.238 334.400 C 145.128 334.400,145.741 335.120,146.600 336.000 M198.900 340.676 C 199.285 340.776,199.915 340.776,200.300 340.676 C 200.685 340.575,200.370 340.493,199.600 340.493 C 198.830 340.493,198.515 340.575,198.900 340.676 M209.700 340.676 C 210.085 340.776,210.715 340.776,211.100 340.676 C 211.485 340.575,211.170 340.493,210.400 340.493 C 209.630 340.493,209.315 340.575,209.700 340.676 M203.312 341.095 C 204.364 341.177,205.984 341.176,206.912 341.092 C 207.840 341.008,206.980 340.941,205.000 340.942 C 203.020 340.943,202.260 341.012,203.312 341.095 M153.779 341.966 C 154.080 342.452,157.600 344.932,157.600 344.657 C 157.600 344.557,156.681 343.815,155.558 343.008 C 154.435 342.201,153.635 341.732,153.779 341.966 M159.800 346.207 C 160.240 346.566,160.960 347.035,161.400 347.251 L 162.200 347.644 161.400 346.993 C 160.960 346.634,160.240 346.165,159.800 345.949 L 159.000 345.556 159.800 346.207 M232.300 346.427 C 231.475 346.863,230.800 347.308,230.800 347.418 C 230.800 347.527,231.520 347.249,232.400 346.800 C 233.280 346.351,234.000 345.897,234.000 345.792 C 234.000 345.530,233.997 345.531,232.300 346.427 M181.400 355.200 C 181.840 355.389,182.470 355.544,182.800 355.544 C 183.178 355.544,183.104 355.417,182.600 355.200 C 182.160 355.011,181.530 354.856,181.200 354.856 C 180.822 354.856,180.896 354.983,181.400 355.200 M207.000 355.200 C 206.496 355.417,206.422 355.544,206.800 355.544 C 207.130 355.544,207.760 355.389,208.200 355.200 C 208.704 354.983,208.778 354.856,208.400 354.856 C 208.070 354.856,207.440 355.011,207.000 355.200 M186.000 355.987 C 186.991 356.317,189.887 356.535,189.567 356.254 C 189.475 356.174,188.410 356.006,187.200 355.881 C 185.780 355.734,185.354 355.771,186.000 355.987 M201.000 356.000 L 199.400 356.286 200.800 356.303 C 201.570 356.313,202.650 356.176,203.200 356.000 C 204.485 355.588,203.299 355.588,201.000 356.000 " stroke="none" fill="#99c1de" fill-rule="evenodd"></path><path id="path4" d="M215.067 168.345 C 214.664 168.504,215.681 168.626,217.328 168.617 C 218.975 168.608,220.115 168.468,219.861 168.306 C 219.279 167.935,216.040 167.962,215.067 168.345 M203.641 174.214 C 202.959 174.992,202.400 175.748,202.400 175.894 C 202.400 176.040,202.536 175.989,202.703 175.780 C 202.870 175.571,203.533 174.815,204.178 174.100 C 204.822 173.385,205.245 172.800,205.116 172.800 C 204.988 172.800,204.324 173.436,203.641 174.214 M228.988 176.800 C 234.355 183.064,238.400 187.608,238.400 187.373 C 238.400 186.936,233.075 180.818,229.024 176.600 L 227.103 174.600 228.988 176.800 M201.867 176.667 C 201.094 177.440,201.642 180.031,202.845 181.294 L 204.091 182.600 203.003 181.218 C 202.094 180.065,201.946 179.553,202.108 178.118 C 202.311 176.317,202.298 176.236,201.867 176.667 M207.677 186.900 C 209.743 189.155,211.921 191.599,212.517 192.331 C 213.113 193.063,213.600 193.539,213.600 193.388 C 213.600 193.072,212.474 191.698,209.050 187.838 C 205.425 183.751,204.509 182.800,204.200 182.800 C 204.046 182.800,205.611 184.645,207.677 186.900 M238.800 187.893 C 238.800 188.088,239.627 189.227,240.637 190.424 C 243.161 193.412,244.091 194.233,242.198 191.800 C 239.504 188.337,238.800 187.528,238.800 187.893 M214.000 193.807 C 214.000 194.113,218.432 199.600,218.679 199.600 C 218.883 199.600,216.921 197.002,215.119 194.886 C 214.504 194.163,214.000 193.678,214.000 193.807 M245.991 197.188 C 246.457 197.841,247.042 198.502,247.291 198.656 C 247.541 198.811,247.241 198.276,246.625 197.468 C 245.288 195.715,244.784 195.492,245.991 197.188 M251.821 205.450 C 255.765 211.266,257.459 213.592,256.590 212.000 C 255.745 210.454,248.306 199.589,247.935 199.360 C 247.703 199.217,249.452 201.957,251.821 205.450 M221.140 203.116 C 221.633 203.809,222.244 204.504,222.497 204.660 C 222.750 204.817,222.554 204.377,222.060 203.684 C 221.567 202.991,220.956 202.296,220.703 202.140 C 220.450 201.983,220.646 202.423,221.140 203.116 M224.625 207.773 C 225.635 209.218,226.545 210.400,226.646 210.400 C 226.919 210.400,223.672 205.692,223.196 205.398 C 222.972 205.259,223.615 206.328,224.625 207.773 M228.819 213.752 C 229.973 215.428,230.991 216.800,231.082 216.800 C 231.442 216.800,227.779 211.358,227.162 210.977 C 226.920 210.827,227.665 212.076,228.819 213.752 M257.615 214.200 C 257.617 214.420,257.986 215.050,258.436 215.600 C 258.979 216.264,259.115 216.331,258.840 215.800 C 258.166 214.495,257.612 213.772,257.615 214.200 M259.209 217.100 C 259.214 217.265,259.585 217.850,260.033 218.400 L 260.848 219.400 260.214 218.100 C 259.611 216.865,259.189 216.445,259.209 217.100 M232.051 218.700 C 235.368 224.127,236.987 226.571,236.357 225.200 C 235.742 223.862,231.544 217.200,231.315 217.200 C 231.216 217.200,231.547 217.875,232.051 218.700 M260.815 219.800 C 260.817 220.020,261.186 220.650,261.636 221.200 C 262.179 221.864,262.315 221.931,262.040 221.400 C 261.366 220.095,260.812 219.372,260.815 219.800 M264.000 225.753 C 264.000 226.182,265.190 228.400,265.421 228.400 C 265.531 228.400,265.323 227.815,264.959 227.100 C 264.217 225.640,264.000 225.336,264.000 225.753 M239.420 231.240 C 239.989 232.362,240.534 233.199,240.633 233.101 C 240.823 232.910,238.851 229.200,238.559 229.200 C 238.464 229.200,238.852 230.118,239.420 231.240 M266.417 231.100 C 266.439 231.501,267.962 234.270,267.983 233.949 C 268.011 233.535,266.805 230.800,266.595 230.800 C 266.488 230.800,266.408 230.935,266.417 231.100 M268.833 236.423 C 268.815 236.546,269.358 238.166,270.040 240.023 C 270.722 241.881,271.550 244.300,271.880 245.400 C 272.706 248.149,273.250 249.373,272.948 247.800 C 272.526 245.607,268.939 235.692,268.833 236.423 M244.550 241.300 C 247.071 247.148,248.184 249.550,248.311 249.422 C 248.445 249.288,247.343 246.603,245.143 241.700 C 244.723 240.765,244.292 240.000,244.185 240.000 C 244.077 240.000,244.242 240.585,244.550 241.300 M273.371 250.200 C 273.682 252.277,274.289 254.822,274.532 255.065 C 274.878 255.411,274.352 252.492,273.731 250.624 C 273.329 249.412,273.238 249.305,273.371 250.200 M250.012 254.800 C 250.012 255.130,250.187 255.670,250.400 256.000 C 250.745 256.533,250.788 256.533,250.788 256.000 C 250.788 255.670,250.613 255.130,250.400 254.800 C 250.055 254.267,250.012 254.267,250.012 254.800 M274.806 257.033 C 274.809 257.675,274.996 258.470,275.221 258.800 C 275.514 259.230,275.554 258.946,275.362 257.800 C 275.030 255.816,274.798 255.496,274.806 257.033 M250.812 257.200 C 250.812 257.530,250.987 258.070,251.200 258.400 C 251.545 258.933,251.588 258.933,251.588 258.400 C 251.588 258.070,251.413 257.530,251.200 257.200 C 250.855 256.667,250.812 256.667,250.812 257.200 M251.656 259.600 C 251.656 259.930,251.811 260.560,252.000 261.000 C 252.217 261.504,252.344 261.578,252.344 261.200 C 252.344 260.870,252.189 260.240,252.000 259.800 C 251.783 259.296,251.656 259.222,251.656 259.600 M275.628 261.433 C 275.644 262.295,275.817 263.360,276.014 263.800 C 276.248 264.322,276.288 263.837,276.132 262.400 C 275.843 259.758,275.589 259.270,275.628 261.433 M253.268 265.600 C 253.288 266.639,253.918 268.346,253.932 267.400 C 253.938 266.960,253.789 266.240,253.600 265.800 C 253.389 265.310,253.261 265.232,253.268 265.600 M276.600 275.600 C 276.600 281.210,276.717 284.810,276.860 283.600 C 277.193 280.787,277.191 270.928,276.857 267.800 C 276.715 266.480,276.600 269.990,276.600 275.600 M254.046 269.600 C 254.065 269.930,254.224 270.650,254.400 271.200 L 254.720 272.200 254.754 271.200 C 254.773 270.650,254.613 269.930,254.400 269.600 C 254.055 269.067,254.016 269.067,254.046 269.600 M254.875 274.400 C 254.886 274.950,255.032 275.940,255.200 276.600 L 255.505 277.800 255.525 276.400 C 255.535 275.630,255.389 274.640,255.200 274.200 C 254.888 273.474,254.858 273.493,254.875 274.400 M255.751 285.200 C 255.751 287.730,255.816 288.765,255.896 287.500 C 255.975 286.235,255.975 284.165,255.896 282.900 C 255.816 281.635,255.751 282.670,255.751 285.200 M275.782 288.182 C 275.629 289.202,275.594 290.127,275.704 290.237 C 275.814 290.347,276.029 289.602,276.182 288.582 C 276.335 287.561,276.370 286.637,276.260 286.527 C 276.150 286.417,275.935 287.161,275.782 288.182 M132.800 289.577 C 131.908 289.750,132.772 289.844,135.180 289.837 C 137.258 289.831,138.518 289.703,137.980 289.553 C 136.757 289.212,134.631 289.222,132.800 289.577 M129.600 290.400 C 129.067 290.745,129.067 290.788,129.600 290.788 C 129.930 290.788,130.470 290.613,130.800 290.400 C 131.333 290.055,131.333 290.012,130.800 290.012 C 130.470 290.012,129.930 290.187,129.600 290.400 M139.600 290.126 C 139.600 290.205,140.356 291.064,141.281 292.035 C 142.802 293.633,142.888 293.675,142.184 292.483 C 141.542 291.395,139.600 289.623,139.600 290.126 M275.049 291.815 C 274.912 292.173,274.816 292.856,274.836 293.333 C 274.862 293.947,274.985 293.808,275.259 292.856 C 275.657 291.472,275.494 290.658,275.049 291.815 M255.264 292.650 C 255.229 293.118,255.105 294.108,254.989 294.850 C 254.796 296.086,254.815 296.117,255.208 295.214 C 255.445 294.672,255.568 293.682,255.483 293.014 C 255.391 292.297,255.302 292.148,255.264 292.650 M274.249 295.415 C 274.112 295.773,274.015 296.366,274.034 296.733 C 274.053 297.100,274.227 296.869,274.421 296.220 C 274.798 294.958,274.665 294.333,274.249 295.415 M143.615 295.400 C 143.617 295.620,143.986 296.250,144.436 296.800 C 144.979 297.464,145.115 297.531,144.840 297.000 C 144.166 295.695,143.612 294.972,143.615 295.400 M119.867 297.467 C 119.501 297.832,119.529 300.709,119.900 300.938 C 120.065 301.040,120.200 300.241,120.200 299.162 C 120.200 298.083,120.185 297.200,120.167 297.200 C 120.148 297.200,120.013 297.320,119.867 297.467 M254.229 298.229 C 254.081 298.815,254.051 299.384,254.161 299.494 C 254.271 299.604,254.481 299.215,254.629 298.629 C 254.776 298.042,254.806 297.473,254.696 297.363 C 254.586 297.253,254.376 297.642,254.229 298.229 M272.588 301.001 C 271.974 302.888,271.321 304.525,271.136 304.640 C 270.951 304.754,270.801 305.152,270.802 305.524 C 270.804 305.944,271.037 305.755,271.418 305.024 C 272.212 303.502,274.078 297.945,273.867 297.733 C 273.777 297.644,273.202 299.114,272.588 301.001 M120.986 302.700 C 121.335 303.415,121.706 304.000,121.810 304.000 C 122.208 304.000,121.952 303.363,121.167 302.400 L 120.352 301.400 120.986 302.700 M150.416 305.763 C 151.168 306.809,151.956 307.773,152.167 307.903 C 152.378 308.033,151.935 307.284,151.184 306.237 C 150.432 305.191,149.644 304.227,149.433 304.097 C 149.222 303.967,149.665 304.716,150.416 305.763 M122.559 305.500 C 123.289 306.884,124.370 308.299,124.387 307.891 C 124.402 307.541,122.377 304.400,122.137 304.400 C 122.050 304.400,122.240 304.895,122.559 305.500 M251.467 307.267 C 251.105 308.188,250.874 309.007,250.954 309.088 C 251.034 309.168,251.400 308.483,251.767 307.567 C 252.133 306.650,252.364 305.831,252.279 305.746 C 252.194 305.661,251.829 306.345,251.467 307.267 M268.684 310.214 C 267.871 311.856,267.293 313.200,267.398 313.200 C 267.665 313.200,270.485 307.551,270.306 307.373 C 270.227 307.293,269.497 308.572,268.684 310.214 M153.923 310.298 C 156.004 313.043,158.013 315.321,158.193 315.140 C 158.272 315.061,157.676 314.263,156.868 313.366 C 156.061 312.469,154.710 310.940,153.866 309.968 L 152.332 308.200 153.923 310.298 M126.240 311.300 C 127.349 313.230,134.442 322.710,136.192 324.600 L 137.673 326.200 136.336 324.462 C 133.630 320.942,129.356 315.214,127.812 313.038 C 126.355 310.985,125.543 310.087,126.240 311.300 M249.344 311.843 C 248.940 312.959,245.714 317.946,244.154 319.867 C 243.409 320.784,242.800 321.672,242.800 321.839 C 242.800 322.007,243.701 320.987,244.803 319.572 C 247.185 316.514,250.165 311.632,249.845 311.312 C 249.721 311.187,249.495 311.426,249.344 311.843 M266.200 314.800 C 265.859 315.460,265.669 316.000,265.779 316.000 C 265.889 316.000,266.259 315.460,266.600 314.800 C 266.941 314.140,267.131 313.600,267.021 313.600 C 266.911 313.600,266.541 314.140,266.200 314.800 M159.608 316.969 C 164.959 323.000,175.075 331.499,179.653 333.811 C 181.626 334.808,180.667 334.043,176.600 331.378 C 172.033 328.384,169.004 325.859,163.008 320.046 C 160.372 317.491,158.842 316.106,159.608 316.969 M262.198 320.802 C 261.798 321.244,261.566 321.699,261.682 321.815 C 261.797 321.930,262.190 321.569,262.555 321.012 C 263.352 319.796,263.193 319.702,262.198 320.802 M259.644 324.045 C 258.898 324.912,258.378 325.711,258.487 325.821 C 258.597 325.931,259.354 325.206,260.170 324.210 C 261.987 321.994,261.531 321.850,259.644 324.045 M239.781 324.840 C 237.336 327.375,232.964 330.850,228.957 333.443 C 223.754 336.810,223.521 336.990,226.200 335.574 C 230.656 333.220,242.995 323.304,241.581 323.214 C 241.461 323.206,240.651 323.938,239.781 324.840 M139.452 328.500 C 140.565 329.655,141.729 330.913,142.038 331.296 C 142.347 331.679,144.040 333.290,145.800 334.876 C 147.560 336.463,148.910 337.649,148.800 337.512 C 148.009 336.528,137.866 326.400,137.672 326.400 C 137.538 326.400,138.338 327.345,139.452 328.500 M254.492 329.978 C 253.112 331.420,250.625 333.725,248.965 335.100 C 247.305 336.475,246.069 337.600,246.218 337.600 C 246.993 337.600,257.614 327.825,257.190 327.501 C 257.085 327.422,255.871 328.536,254.492 329.978 M184.400 336.400 C 185.610 337.039,186.780 337.562,187.000 337.562 C 187.220 337.562,186.410 337.039,185.200 336.400 C 183.990 335.761,182.820 335.238,182.600 335.238 C 182.380 335.238,183.190 335.761,184.400 336.400 M149.222 337.887 C 149.248 338.251,153.598 341.749,153.765 341.540 C 153.827 341.463,152.825 340.539,151.539 339.487 C 150.252 338.435,149.210 337.715,149.222 337.887 M241.652 340.591 C 238.138 343.002,236.628 344.160,238.000 343.393 C 239.390 342.615,245.600 338.364,245.600 338.190 C 245.600 337.885,245.575 337.901,241.652 340.591 M190.000 338.800 C 190.330 339.013,190.870 339.188,191.200 339.188 C 191.733 339.188,191.733 339.145,191.200 338.800 C 190.870 338.587,190.330 338.412,190.000 338.412 C 189.467 338.412,189.467 338.455,190.000 338.800 M192.400 339.600 C 192.730 339.813,193.360 339.978,193.800 339.966 L 194.600 339.944 193.800 339.600 C 192.604 339.086,191.605 339.086,192.400 339.600 M216.000 339.600 C 215.176 339.864,215.141 339.926,215.800 339.954 C 216.240 339.973,216.870 339.813,217.200 339.600 C 217.901 339.147,217.414 339.147,216.000 339.600 M195.600 340.379 C 195.930 340.604,196.725 340.791,197.367 340.794 C 198.904 340.802,198.584 340.570,196.600 340.238 C 195.454 340.046,195.170 340.086,195.600 340.379 M212.400 340.400 L 211.400 340.720 212.400 340.754 C 212.950 340.773,213.670 340.613,214.000 340.400 C 214.764 339.906,213.942 339.906,212.400 340.400 M200.476 341.260 C 200.984 341.403,203.020 341.520,205.000 341.520 C 206.980 341.520,209.016 341.403,209.524 341.260 C 210.032 341.117,207.996 341.000,205.000 341.000 C 202.004 341.000,199.968 341.117,200.476 341.260 M154.400 342.154 C 154.400 342.239,154.895 342.627,155.500 343.016 L 156.600 343.724 155.838 342.862 C 155.164 342.099,154.400 341.723,154.400 342.154 M157.069 344.032 C 157.566 344.633,160.000 346.164,160.000 345.876 C 160.000 345.783,159.235 345.202,158.300 344.585 C 157.365 343.968,156.811 343.720,157.069 344.032 M235.111 344.560 C 232.787 345.941,232.782 346.206,235.100 345.041 C 236.255 344.461,237.200 343.900,237.200 343.793 C 237.200 343.449,236.629 343.658,235.111 344.560 M161.600 346.966 C 161.600 347.235,165.307 349.227,165.482 349.052 C 165.570 348.964,164.800 348.421,163.770 347.846 C 161.863 346.780,161.600 346.673,161.600 346.966 M167.600 350.195 C 167.600 350.405,170.335 351.611,170.749 351.583 C 171.070 351.562,168.301 350.039,167.900 350.017 C 167.735 350.008,167.600 350.088,167.600 350.195 M171.262 351.795 C 171.611 352.145,176.979 354.000,177.598 353.986 C 177.929 353.979,176.670 353.440,174.800 352.789 C 171.281 351.564,170.933 351.466,171.262 351.795 M218.200 352.000 C 217.696 352.217,217.622 352.344,218.000 352.344 C 218.330 352.344,218.960 352.189,219.400 352.000 C 219.904 351.783,219.978 351.656,219.600 351.656 C 219.270 351.656,218.640 351.811,218.200 352.000 M214.200 353.200 C 212.880 353.604,212.042 353.950,212.338 353.967 C 213.011 354.008,217.200 352.805,217.200 352.572 C 217.200 352.317,216.834 352.393,214.200 353.200 M179.200 354.353 C 181.014 354.976,184.160 355.556,186.800 355.753 L 189.400 355.948 187.000 355.568 C 185.680 355.358,183.790 355.020,182.800 354.815 C 179.648 354.163,178.051 353.958,179.200 354.353 M208.800 354.449 C 207.810 354.641,205.471 354.992,203.603 355.230 C 201.734 355.467,200.114 355.756,200.003 355.870 C 199.496 356.392,207.142 355.334,210.600 354.404 C 212.178 353.980,211.079 354.007,208.800 354.449 M192.117 356.297 C 193.611 356.374,195.951 356.374,197.317 356.296 C 198.682 356.218,197.460 356.155,194.600 356.155 C 191.740 356.156,190.622 356.220,192.117 356.297 " stroke="none" fill="#6ca4d4" fill-rule="evenodd"></path></g></svg>